<?xml version="1.0" encoding="UTF-8"?>
<svg width="288" height="448" viewBox="0 0 36 56" xmlns="http://www.w3.org/2000/svg">
 <g>
  <path d="m32,53c0,0.75,0.25,1,1,1s1,-0.25,1,-1s-0.25,-1,-1,-1s-1,0.25,-1,1z" />
  <path d="m32.25,46c-0.57,0.76,0,1.25,-0.5,1.75s-0.99,-0.07,-1.75,0.5c-0.24,0.18,0.01,0.47,1,0.75c0.76,0.22,0.78,0.24,1,1c0.28,0.99,0.57,1.24,0.75,1c0.57,-0.76,0,-1.25,0.5,-1.75s0.99,0.07,1.75,-0.5c0.24,-0.18,-0.01,-0.47,-1,-0.75c-0.76,-0.22,-0.78,-0.24,-1,-1c-0.28,-0.99,-0.57,-1.24,-0.75,-1z" />
  <path d="m15,45.5c-1.78,1.02,-2,1.5,-2,4s0.27,2.85,2,4c1.27,0.85,1.68,0.79,3,0c1.18,-0.71,1.6,-0.8,2,-2c0.1,-0.3,-0.41,-0.34,-1,0c-2.41,1.41,-2.56,1.33,-3,1c-0.56,-0.42,-1,-0.5,-1,-3s0.42,-2.62,1,-3c0.92,-0.62,1.38,-0.77,1.75,-0.25c0.88,1.23,0.5,1.75,1.25,1.75s1.1,-0.3,1,-1c-0.15,-1.05,-0.4,-1.26,-1,-1.5c-1.9,-0.76,-2.28,-0.98,-4,0z" />
  <path d="m1,41.25c-0.26,0.08,1.04,0.54,1.5,1.75c0.79,2.04,0.58,2.26,0.5,4.5c-0.17,4.51,-0.58,4.43,-1.5,5.5c-0.58,0.68,-0.49,1.12,4,1c4.51,-0.13,4.85,-0.27,6,-2c0.85,-1.27,0.79,-1.68,0,-3c-0.71,-1.18,-1.5,-1,-1.5,-2s1,-1,1,-2.5s-0.19,-2.34,-2,-3c-3.69,-1.34,-4.24,-1.33,-8,-0.25zm6,6.75c2.02,0.13,2.2,0.4,2.5,1c0.7,1.4,0.9,1.77,0.25,2.75c-0.35,0.52,-0.72,0.34,-1.75,0.75c-1.47,0.59,-2,1,-2.75,0.25c-0.63,-0.63,-0.29,-1.13,-0.25,-2.25c0.08,-2.26,0.27,-2.62,2,-2.5zm-1,-6c2.12,0.58,2.4,0.73,2.75,1.25c0.65,0.98,0.45,1.35,-0.25,2.75c-0.3,0.6,-0.47,0.86,-2,1c-1.22,0.11,-1.5,-0.25,-1.5,-2.5s0.37,-2.67,1,-2.5z" />
  <path d="m32,40.5c-0.56,-0.42,-1,-0.5,-1,0s1.07,1.19,1,1.25c-1.43,1.19,-2.2,0.9,-2,1c1.8,0.9,2.06,0.55,1.5,1.25c-0.44,0.55,-0.5,1,0,1s0.5,-0.75,1,-0.75s0.5,0.75,1,0.75s0.44,-0.45,0,-1c-0.56,-0.7,-0.3,-0.35,1.5,-1.25c0.2,-0.1,-0.57,0.19,-2,-1c-0.07,-0.06,1,-0.75,1,-1.25s-0.44,-0.42,-1,0c-0.44,0.33,-0.56,0.33,-1,0z" />
  <path d="m27,40.5c-0.58,0.38,-0.75,0.5,-0.75,1s0.62,0.48,0.75,2.5c0.12,1.98,-0.19,1.86,-1,1.5c-1.44,-0.64,-1.73,-0.85,-3,0c-1.73,1.15,-2,1.5,-2,4s0.27,2.85,2,4c1.27,0.85,1.52,0.55,3,0c0.52,-0.2,0.48,-0.2,1,0c1.48,0.55,2.12,1.12,3,0.25c0.12,-0.13,-0.57,-0.74,-1,-6.75c-0.07,-0.99,0.69,-1.11,-0.25,-6.75c-0.06,-0.36,-0.83,-0.37,-1.75,0.25zm-3.5,6.5c0.2,-0.6,0.5,-1,1.5,-1s1.3,0.4,1.5,1c0.8,2.4,0.8,2.6,0,5c-0.2,0.6,-0.5,1,-1.5,1s-1.3,-0.4,-1.5,-1c-0.8,-2.4,-0.8,-2.6,0,-5z" />
  <path d="m16,21.5c-2.11,0.63,-2.1,0.76,-5,2c-0.6,0.26,-0.4,0.53,-1.5,4.5c-0.15,0.53,-0.18,0.47,0.5,2c0.32,0.72,0.75,0.25,1.75,1.25s0.52,1.87,3.25,1.75c3.02,-0.13,3.09,-0.35,5,-1.5c0.59,-0.35,0.8,-0.4,1.5,-2.5c1.3,-3.9,1.65,-4.11,1.5,-5c-0.35,-2.11,-0.8,-2.6,-1.25,-2.75c-2.55,-0.85,-2.86,-0.62,-5.75,0.25z" />
  <path d="m7.5,1.75c-0.94,0.09,-0.97,-0.38,-1.5,-0.25c-2.47,0.62,-4.33,-0.26,-4.75,0.75c-2.08,4.99,-0.45,5.75,-0.25,30.75c0.05,5.75,0.25,5.95,6,6c22,0.2,24.75,2.75,27.75,-0.25s0.45,-5.76,0.25,-8.75c-0.8,-12.01,-0.69,-12.01,-1,-22c-0.19,-6.01,-0.44,-6.41,-1,-6.5c-5.94,-0.91,-6.01,-0.81,-16,-0.5c-6.01,0.19,-6.09,0.85,-6.5,0.75c-1.59,-0.4,-1.44,-0.16,-3,0zm24.25,1.25c0.57,0.76,0.57,1.24,0,2c-0.18,0.24,-0.75,0,-0.75,-1s0.57,-1.24,0.75,-1zm-15.75,0.5c0.53,-0.12,0.48,-0.2,1,0c1.48,0.55,1.52,0.55,3,0c0.52,-0.2,0.47,-0.12,1,0c4.97,1.13,5.51,0.72,6.5,2.5c1.51,2.72,1.33,2.99,1.5,9c0.33,11.99,-0.41,12.06,0.5,18c0.09,0.56,0.59,0.35,2.5,1.5c0.59,0.35,0.85,0.45,1,1.5c0.1,0.7,-0.26,1.12,-4.5,1c-4.51,-0.13,-4.7,-0.4,-5,-1c-0.7,-1.4,0,-2,-0.75,-2.75s-1.52,-0.63,-2.75,0.25c-2.27,1.62,-1.88,2.47,-4,3c-3.88,0.97,-4.12,0.97,-8,0c-2.12,-0.53,-2.28,-0.8,-3.5,-2.5c-1.28,-1.8,-1.5,-2,-1.5,-4.5s-0.15,-2.91,1.5,-5.5c1.85,-2.91,2.71,-1.98,6.5,-3.5c1.21,-0.48,1.04,-0.77,8,-2c1.54,-0.27,2.55,-0.15,2.75,-0.75c1.3,-3.9,1.15,-4.55,-0.25,-8.75c-0.6,-1.8,-1.5,-2,-5,-2s-3.59,0.35,-5.5,1.5c-0.59,0.35,-0.35,0.59,-1.5,2.5c-0.35,0.59,-0.48,0.87,-2.5,1c-1.73,0.12,-2,-0.25,-2,-2.5s0.29,-2.16,1,-2.5c5.04,-2.41,5.03,-2.37,10,-3.5zm-14,0.5c-0.5,-0.5,0.5,-1.5,1,-1s-0.5,1.5,-1,1z" />
 </g>
</svg>
