<?xml version="1.0" encoding="UTF-8"?>
<svg width="288" height="448" viewBox="0 0 36 56" xmlns="http://www.w3.org/2000/svg">
 <g>
  <path d="m32,52c-1,1,1,3,2,2s-1,-3,-2,-2z" />
  <path d="m33,48c-1.62,-1.08,-0.08,-1.38,-1,0c-1.08,1.62,-1.38,0.08,0,1c1.62,1.08,0.08,1.38,1,0c1.08,-1.62,1.38,-0.08,0,-1z" />
  <path d="m20,46c-4.12,-2.47,-6.32,-1.38,-7,1c-1.32,4.62,-0.41,6.03,2,7c2.59,1.03,5.4,-2.8,5,-3c-2.4,-1.2,-6.51,1.28,-5,-4c0.49,-1.72,2,0,3,1s2.88,-1.47,2,-2z" />
  <path d="m9,41c-7.69,-1.54,-6.42,-0.29,-6,2c1.58,8.71,-3.32,10.62,-2,11c8.32,2.38,10.03,0.41,11,-2c1.03,-2.59,-1.78,-2.7,-2,-4c-0.78,-4.7,1.31,-6.54,-1,-7zm-4,7c1.56,-1.95,6.56,2.05,5,4c-2.44,3.05,-7.44,-0.95,-5,-4zm0,-6c1.5,-1.5,5.5,2.5,4,4c-2.5,2.5,-6.5,-1.5,-4,-4z" />
  <path d="m34,40c-0.79,-1.32,-5.21,1.32,-3,5c0.79,1.32,5.21,-1.32,3,-5z" />
  <path d="m30,54c4.91,-11.47,-3.4,-14.8,-4,-13c-1.4,4.2,0.73,3.38,-3,4c-2.27,0.38,-3.32,2.38,-2,7c0.68,2.38,7.91,4.53,9,2zm-7,-2c-1.51,-5.28,3.51,-6.72,4,-5c1.51,5.28,-3.51,6.72,-4,5z" />
  <path d="m23,25c0.67,-3.7,-1.35,-5.41,-7,-4c-2.35,0.59,-3.5,0.5,-5,2c-3.5,3.5,-3,6,-1,8c1,1,1.75,1.97,2,2c7.75,0.97,9.67,-0.7,11,-8z" />
  <path d="m34,2c-15.11,-16.44,-51.43,16.94,-33,37c15.57,16.94,51.89,-16.44,33,-37zm-3,3s0,0,0,0zm-26,7c-2.44,-3.05,-0.34,-7.38,11,-9c9.66,-1.38,11.77,0.82,12,3c2.77,26.82,2,26,4,28s-0.24,6.1,-8,3c-2.24,-0.9,-1.74,-5.29,-4,-4c-4.74,2.71,-4.47,5.88,-12,4c-4.47,-1.12,-6.48,-3.57,-5,-10c1.52,-6.57,8.39,-0.51,19,-9c4.39,-3.51,0.33,-10.48,-2,-11c-6.67,-1.48,-7.85,-0.68,-10,2c-1.85,2.32,-3.44,4.95,-5,3zm-2,-8s0,0,0,0z" />
 </g>
</svg>
