<?xml version="1.0" encoding="UTF-8"?>
<svg width="288" height="448" viewBox="0 0 36 56" xmlns="http://www.w3.org/2000/svg">
 <g>
  <path d="m32.25,53.75h1.5v-1.5h-1.5z" />
  <path d="m32.25,46l-2.25,2.75l2.75,2.25l2.25,-2.75z" />
  <path d="m17,45l-3.5,2l-0.5,2.5l0.5,2.5l3,2l3.5,-2.5l-4.5,0.5v-5h4.5z" />
  <path d="m1,41.25l2,6.25l-2,6.25l9,-0.25l2,-3l-2,-3.5l0.5,-4l-1.5,-1.5zm8,7.25l0.75,3.25l-4.5,1v-4.5zm-0.25,-5.25l-0.25,2.75l-3.25,0.75v-4.5z" />
  <path d="m31.5,40l0.5,1.75l-2,1l2,0.5l-0.5,1.75h2l-0.5,-1.75l2,-1l-2,-0.5l0.5,-1.75z" />
  <path d="m28,40l-1.75,1.5l0.5,4.5l-2.25,-1l-3,2v5l3,2l5.5,-0.25zm-3,6l2,3.5l-2,3.5l-2,-3.5z" />
  <path d="m10.5,24l-1.25,4.5l1,2.25l4.75,2.25l5.5,-2l2.5,-7l-1.25,-2.75l-2.75,-0.25z" />
  <path d="m1.25,2.25v36.5h33.5l-1.25,-36.75l-24.5,-1zm30.5,0.75l-0.5,2zm-26.5,4.25l11.25,-4l9.5,1.25l1.5,1.5l2,27l3.25,3.75l-8.75,-0.25l-2.5,-3.5l-5.5,3.5l-4,0.5l-4,-0.5l-3.5,-2.5l-1.5,-4.5l1.5,-5.5l7.5,-4.5l9.75,-1.75l0.25,-4.25l-2,-6h-7l-6,4.5l-1.75,-0.25zm-3.25,-4.25l1,1z" />
 </g>
</svg>
