<?xml version="1.0" encoding="UTF-8"?>
<svg width="288" height="448" viewBox="0 0 36 56" xmlns="http://www.w3.org/2000/svg">
 <g>
  <path d="m32.25,53.75l0.75,0.25l0.75,-0.25l0.25,-0.75l-0.25,-0.75l-0.75,-0.25l-0.75,0.25l-0.25,0.75z" />
  <path d="m32,47l-0.25,0.75l-0.75,0.25l-1,0.25v0.5l1,0.25l0.75,0.25l0.25,0.75l0.25,1h0.5l0.25,-1l0.25,-0.75l0.75,-0.25l1,-0.25v-0.5l-1,-0.25l-0.75,-0.25l-0.25,-0.75l-0.25,-1h-0.5z" />
  <path d="m13.5,47l-0.5,2.5l0.5,2.5l1.5,1.5l1.5,0.5l1.5,-0.5l2,-2l-0.5,-0.5l-0.5,0.5l-2.5,1.25l-0.5,-0.25l-0.5,-0.5l-0.5,-2.5l0.5,-2.5l0.5,-0.5l1,-0.5l0.75,0.25l0.5,1.5l0.75,0.25l0.75,-0.25l0.25,-0.75l-0.5,-1l-0.5,-0.5l-2,-0.5l-2,0.5z" />
  <path d="m1.5,42l1,1l0.5,4.5l-0.5,4.5l-1,1l-0.5,0.75l4.5,0.25l4.5,-0.5l1.5,-1.5l0.5,-1.5l-0.5,-1.5l-1,-1l-0.5,-1l0.5,-1l0.5,-1.5l-0.5,-1.5l-1.5,-1.5l-4,-0.5l-4,0.25zm7.5,6.5l0.5,0.5l0.5,1.5l-0.25,1.25l-0.75,0.25l-1,0.5l-1.5,0.5l-1.25,-0.25l-0.25,-2.25l0.25,-2.25l1.75,-0.25zm-1,-5.5l0.75,0.25l0.25,1.25l-0.5,1.5l-0.5,0.5l-1.5,0.5l-1.25,-0.25l-0.25,-2.25l0.25,-2.25l0.75,-0.25z" />
  <path d="m31.5,40l-0.5,0.5l0.5,0.5l0.5,0.75l-2,0.5v0.5l2,0.5l-0.5,0.75l-0.5,0.5l0.5,0.5l0.5,-0.5l0.5,-0.25l0.5,0.25l0.5,0.5l0.5,-0.5l-0.5,-0.5l-0.5,-0.75l2,-0.5v-0.5l-2,-0.5l0.5,-0.75l0.5,-0.5l-0.5,-0.5l-0.5,0.5l-0.5,0.25l-0.5,-0.25z" />
  <path d="m26.5,41l-0.25,0.5l0.25,0.5l0.5,2l-0.25,2l-0.75,-0.5l-1.5,-0.5l-1.5,0.5l-1.5,1.5l-0.5,2.5l0.5,2.5l1.5,1.5l1.5,0.5l1.5,-0.5l0.5,-0.25l0.5,0.25l1.5,0.5l1.5,-0.25l-0.5,-0.75l-0.5,-6v-1l-0.25,-5.75l-0.75,-0.25l-1,0.5zm-2.5,5.5l1,-0.5l1,0.5l0.5,0.5l0.5,2.5l-0.5,2.5l-0.5,0.5l-1,0.5l-1,-0.5l-0.5,-0.5l-0.5,-2.5l0.5,-2.5z" />
  <path d="m14,22.5l-3,1l-0.5,0.5l-1,4l-0.25,0.5l0.75,1.5l0.25,0.75l1.5,0.5l0.5,1.5l2.75,0.25l3,-0.5l2,-1l0.5,-0.5l1,-2l1,-4l0.5,-1l-1,-2l-0.25,-0.75l-2.75,-0.25l-3,0.5z" />
  <path d="m6.5,1.25l-0.5,0.25l-2.5,0.5l-2.25,0.25l-0.25,5.75v25l0.25,5.75l5.75,0.25h22l5.75,-0.25l0.25,-5.75v-3l-1,-12v-10l-0.5,-6l-0.5,-0.5l-6,-0.5h-10l-6,0.5l-0.5,0.25l-1.5,-0.75l-1.5,0.75zm25.5,2.75l-0.25,1h-0.5l-0.25,-1l0.25,-1h0.5zm-15.5,-0.75l0.5,0.25l1.5,0.5l1.5,-0.5l0.5,-0.25l0.5,0.25l5,1l1.5,1.5l1,3l0.5,6v12l0.5,6l0.5,0.5l2,1l0.5,0.5l0.5,1l-0.25,0.75l-4.25,0.25l-4.5,-0.5l-0.5,-0.5l-0.5,-1.5l-0.25,-1.25l-1.25,-0.25l-1.5,0.5l-2,2l-2,1l-4,0.5l-4,-0.5l-2,-1l-1.5,-1.5l-1,-2l-0.5,-2.5l0.5,-2.5l1,-3l2.5,-2.5l4,-1l1,-1l7,-1l1.5,-0.5l1.25,-0.25l0.25,-4.25l-0.5,-4.5l-1.5,-1.5l-3.5,-0.5l-3.5,0.5l-2,1l-0.5,0.5l-1,2l-0.5,0.5l-2,0.5l-1.75,-0.25l-0.25,-2.25l0.25,-2.25l0.75,-0.25l5,-2.5l5,-1zm-14.5,-0.25h1v1h-1z" />
 </g>
</svg>
