<?xml version="1.0" encoding="UTF-8"?>
<svg width="288" height="448" viewBox="0 0 36 56" xmlns="http://www.w3.org/2000/svg">
 <g>
  <path d="m32,54h2v-2h-2z" />
  <path d="m32,48h-2v1h2v2h1v-2h2v-1h-2v-2h-1z" />
  <path d="m13.5,47l-0.5,2.5l0.5,2.5l1.5,1.5l1.5,0.5l1.5,-0.5l2,-2l-0.5,-0.5l-0.5,0.5l-2,1l-0.5,0.5l-1,-1l-0.5,-2.5l0.5,-2.5l0.5,-0.5l1,-0.5h1v2h2v-1l-0.5,-1l-0.5,-0.5l-2,-0.5l-2,0.5z" />
  <path d="m2.5,43l0.5,4.5l-0.5,4.5l-1.5,1.5l4.5,0.5l4.5,-0.5l1.5,-1.5l0.5,-1.5l-0.5,-1.5l-1,-1l-0.5,-1l0.5,-1l0.5,-1.5l-0.5,-1.5l-1.5,-1.5l-4,-0.5l-4,0.5zm6.5,5.5l0.5,0.5l0.5,1.5v1.5h-1l-1,0.5l-1.5,0.5h-1.5v-5h2zm-1,-5.5h1v1.5l-0.5,1.5l-0.5,0.5l-1.5,0.5h-1.5v-5h1z" />
  <path d="m31.5,40l-0.5,0.5l1,1l-1,0.5h-1v1h1l1,0.5l-1,1l0.5,0.5l1,-1l1,1l0.5,-0.5l-1,-1l1,-0.5h1v-1h-1l-1,-0.5l1,-1l-0.5,-0.5l-1,1z" />
  <path d="m26,41.5l0.5,0.5l0.5,2l-0.5,2l-0.5,-0.5l-1.5,-0.5l-1.5,0.5l-1.5,1.5l-0.5,2.5l0.5,2.5l1.5,1.5l1.5,0.5l1.5,-0.5l0.5,-0.5l0.5,0.5l1.5,0.5l1.5,-0.5l-0.5,-0.5l-0.5,-6v-7h-1l-1,0.5zm-2,5l1,-0.5l1,0.5l0.5,0.5l0.5,2.5l-0.5,2.5l-0.5,0.5l-1,0.5l-1,-0.5l-0.5,-0.5l-0.5,-2.5l0.5,-2.5z" />
  <path d="m14,22.5l-3,1l-0.5,0.5l-1,4l-0.5,0.5l0.5,0.5l0.5,1v1h2v2h3l3,-0.5l2,-1l0.5,-0.5l1,-2l1,-4l0.5,-1l-1,-2v-1h-3l-3,0.5z" />
  <path d="m6.5,1l-0.5,0.5l-2.5,0.5h-2.5v37h34v-9l-1,-12v-10l-0.5,-6l-0.5,-0.5l-6,-0.5h-10l-6,0.5l-0.5,0.5l-0.5,-0.5l-1,-0.5l-1,0.5l-0.5,0.5zm25.5,4h-1v-2h1zm-15.5,-2l0.5,0.5l1.5,0.5l1.5,-0.5l0.5,-0.5l0.5,0.5l5,1l1.5,1.5l1,3l0.5,6v12l0.5,6l0.5,0.5l2,1l0.5,0.5l0.5,1v1h-4.5l-4.5,-0.5l-0.5,-0.5l-0.5,-1.5v-1.5h-1.5l-1.5,0.5l-2,2l-2,1l-4,0.5l-4,-0.5l-2,-1l-1.5,-1.5l-1,-2l-0.5,-2.5l0.5,-2.5l1,-3l2.5,-2.5l4,-1l1,-1l7,-1l1.5,-0.5h1.5v-4.5l-0.5,-4.5l-1.5,-1.5l-3.5,-0.5l-3.5,0.5l-2,1l-0.5,0.5l-1,2l-0.5,0.5l-2,0.5h-2v-5h1l5,-2.5l5,-1zm-14.5,0h1v1h-1z" />
 </g>
</svg>
