<?xml version="1.0" encoding="UTF-8"?>
<svg width="288" height="448" viewBox="0 0 36 56" xmlns="http://www.w3.org/2000/svg">
 <g>
  <path d="m32,54h2v-2h-2z" />
  <path d="m32,46v2l-2,1h2l1,2v-2l2,-1h-2z" />
  <path d="m15,45l-2,2v5l2,2h3l2,-3l-4,2l-1,-6l3,-1v2h2v-2z" />
  <path d="m1,41l2,2v9l-2,2h9l2,-2v-3l-2,-1l1,-5l-2,-2zm8,7l1,4l-5,1v-5zm0,-5v3l-4,1v-5z" />
  <path d="m31,40v5h3v-5z" />
  <path d="m29,40l-3,1l1,5l-4,-1l-2,2v5l2,2h7zm-5,6l3,1l-1,6l-3,-1z" />
  <path d="m22,21h-6l-2,2h-3l-2,5l1,3h2v2l8,-1l3,-7z" />
  <path d="m1,2v37h34l-1,-37zm31,1l-1,2zm-27,4l11,-4l10,1l2,2l1,27l3,1l1,3h-9l-1,-4h-3l-4,4h-8l-4,-3l-1,-7l4,-6l15,-3v-9l-2,-2h-7l-3,2l-1,3h-4zm-3,-4l1,1z" />
 </g>
</svg>
