<?xml version="1.0" encoding="UTF-8"?>
<svg width="288" height="448" viewBox="0 0 36 56" xmlns="http://www.w3.org/2000/svg">
 <g>
  <path d="m32,54h2v-2h-2z" />
  <path d="m32,46v2h-2v1h2v2h1v-2h2v-1h-2v-2z" />
  <path d="m15,45v1l-2,1v5h1l1,2h3v-1h1l1,-2l-4,2v-1h-1v-5h1v-1h2v2h2v-2h-1v-1z" />
  <path d="m1,41v1l2,1v9h-1l-1,2h9v-1l2,-1v-3l-2,-1v-2h1v-3h-1l-1,-2zm8,7v1h1v3h-2v1h-3v-5zm0,-5v3h-1v1h-3v-5z" />
  <path d="m31,40v1h1v1h-2v1h2l-1,2h1v-1l2,1v-1h-1v-1h2v-1h-2l1,-2h-1v1z" />
  <path d="m29,40h-2v1h-1v1h1v4h-1v-1h-3v1l-2,1v5h1l1,2h3v-1h1v1h3v-1h-1zm-5,6h2v1h1v5h-1v1h-2v-1h-1v-5h1z" />
  <path d="m22,21h-6v1h-2v1h-3v1h-1v4h-1v1h1v2h2v2h6v-1h2v-1h1v-2h1v-4h1z" />
  <path d="m1,2v37h34v-15h-1v-22h-1v-1h-22v1h-1v-1h-2v1l-2,-1v1zm31,1v2h-1v-2zm-27,4h2v-1h2v-1h2v-1h5v-1h1v1h3v-1h1v1h5v1l2,1v3h1v24h1v1h2v1h1v2h-9v-1h-1v-3h-3v1h-1l-1,2h-2v1h-8v-1h-2v-1l-2,-1v-2h-1v-5h1v-3h1v-1h1l1,-2h4l1,-2h7v-1h3v-9h-1l-1,-2h-7v1h-2v1h-1v2h-1v1h-4zm-3,-4h1v1h-1z" />
 </g>
</svg>
