<?xml version="1.0" encoding="UTF-8"?>
<svg width="288" height="448" viewBox="0 0 36 56" xmlns="http://www.w3.org/2000/svg">
 <g>
  <path d="m32.25,53.75h1.5v-1.5h-1.5z" />
  <path d="m32.25,46l-0.5,1.75l-1.75,1l1.75,0.5l1,1.75l0.5,-1.75l1.75,-1l-1.75,-0.5z" />
  <path d="m17,45l-2,0.5l-1.5,1.5l-0.5,2.5l0.5,2.5l3,2l3.5,-2.5l-0.5,-0.5l-3,1.75l-1,-0.75v-5l1.5,-1l1.25,1.75h1.5l0.25,-0.75l-1,-1.5z" />
  <path d="m1,41.25l1.5,1.75l0.5,4.5l-0.5,4.5l-1.5,1.75l9,-0.25l2,-3l-2,-3.5l1,-2.5l-0.5,-1.5l-1.5,-1.5zm8,7.25l1,2l-0.25,1.25l-3.25,1.25l-1.25,-0.25v-4.5zm-0.25,-5.25l-0.25,2.75l-2,1l-1.25,-0.25v-4.5z" />
  <path d="m31.5,40l-0.5,0.5l1,1.25l-2,1l2,0.5l-1,1.25l0.5,0.5l1,-0.75l1,0.75l0.5,-0.5l-1,-1.25l2,-1l-2,-0.5l1,-1.25l-0.5,-0.5l-1,0.75z" />
  <path d="m28,40l-1.75,1.5l0.5,4.5l-2.25,-1l-3,2v5l3,2l2,-0.75l3.5,0.5l-1.25,-13.5zm-3,6l1.5,1l0.5,2.5l-0.5,2.5l-1.5,1l-1.5,-1l-0.5,-2.5l0.5,-2.5z" />
  <path d="m10.5,24l-1.25,4.5l1,2.25l1.5,0.5l0.5,1.5l2.75,0.25l3,-0.5l2.5,-1.5l2.5,-7l-1.25,-2.75l-2.75,-0.25l-3,0.5z" />
  <path d="m1.25,2.25v36.5h33.5l0.25,-8.75l-1.5,-28l-6.5,-1l-16.5,0.75l-1.5,-0.75l-1.5,0.75l-1,-0.5zm30.5,0.75l-0.5,2zm-26.5,4.25l5.75,-2.75l5.5,-1.25l2,0.75l2,-0.75l5.5,1.25l1.5,1.5l1.5,9l0.5,18l3,2l0.25,1.75l-8.75,-0.25l-1.25,-3.25l-1.25,-0.25l-5.5,3.5l-4,0.5l-4,-0.5l-3.5,-2.5l-1.5,-4.5l1.5,-5.5l2.5,-2.5l4,-1l1,-1l9.75,-1.75l0.25,-4.25l-0.5,-4.5l-1.5,-1.5h-7l-2,1l-2,3l-2,0.5l-1.75,-0.25zm-3.25,-4.25h1v1h-1z" />
 </g>
</svg>
