<?xml version="1.0" encoding="UTF-8"?>
<svg width="288" height="448" viewBox="0 0 36 56" xmlns="http://www.w3.org/2000/svg">
 <g>
  <path d="m32.25,53.75l1.5,-1.5z" />
  <path d="m32.25,46l-2.25,2.75l2.75,2.25l2.25,-2.75z" />
  <path d="m17,45l-4,4.5l3.5,4.5l3.5,-2.5l-4.5,0.5v-5h4.5z" />
  <path d="m1,41.25v12.5l9,-0.25l0.5,-10.5zm8,7.25l0.75,3.25l-4.5,1v-4.5zm-0.25,-5.25l-3.5,3.5v-4.5z" />
  <path d="m31.5,40l-1.5,2.75l3.5,2.25l1.5,-2.75z" />
  <path d="m28,40l-1.25,6l-5.25,1l3,7l5.5,-0.25zm-3,6v7z" />
  <path d="m10.5,24l-0.25,6.75l4.75,2.25l5.5,-2l2.5,-7l-4,-3z" />
  <path d="m1.25,2.25v36.5h33.5l-1.25,-36.75zm30.5,0.75l-0.5,2zm-26.5,4.25l11.25,-4l11,2.75l2,27l3.25,3.75l-8.75,-0.25l-2.5,-3.5l-9.5,4l-7.5,-3v-10l17.25,-6.25l-1.75,-10.25h-7l-6,4.5zm-3.25,-4.25z" />
 </g>
</svg>
